<svg width="21" height="23" viewBox="0 0 21 23" fill="none" xmlns="http://www.w3.org/2000/svg">
<g filter="url(#filter0_d)">
<path d="M15.5857 18.7644C16.4548 19.6336 17.8641 19.6336 18.7332 18.7644C19.6024 17.8953 19.6024 16.486 18.7332 15.6169L13.365 10.2487L18.8154 4.79824C19.6843 3.92934 19.6843 2.52057 18.8154 1.65167C17.9465 0.782776 16.5378 0.782775 15.6689 1.65167L10.2185 7.1021L4.79943 1.68308C3.93026 0.81391 2.52105 0.81391 1.65188 1.68308C0.782707 2.55226 0.782707 3.96146 1.65188 4.83064L7.0709 10.2497L1.7341 15.5865C0.865203 16.4554 0.865203 17.8641 1.7341 18.733C2.603 19.6019 4.01177 19.6019 4.88067 18.733L10.2175 13.3962L15.5857 18.7644Z" fill="white"/>
<path d="M15.2321 19.118C16.2966 20.1824 18.0223 20.1824 19.0868 19.118C20.1512 18.0535 20.1512 16.3278 19.0868 15.2633L14.0721 10.2487L19.169 5.15179C20.2332 4.08763 20.2332 2.36228 19.169 1.29812C18.1048 0.23396 16.3795 0.233959 15.3153 1.29812L10.2185 6.395L5.15299 1.32953C4.08855 0.265095 2.36276 0.265094 1.29833 1.32953C0.233891 2.39397 0.233891 4.11975 1.29833 5.18419L6.36379 10.2497L1.38055 15.2329C0.316388 16.2971 0.316388 18.0224 1.38055 19.0866C2.44471 20.1507 4.17006 20.1507 5.23422 19.0866L10.2175 14.1033L15.2321 19.118Z" stroke="black"/>
</g>
<defs>
<filter id="filter0_d" x="0" y="0" width="20.4671" height="22.4163" filterUnits="userSpaceOnUse" color-interpolation-filters="sRGB">
<feFlood flood-opacity="0" result="BackgroundImageFix"/>
<feColorMatrix in="SourceAlpha" type="matrix" values="0 0 0 0 0 0 0 0 0 0 0 0 0 0 0 0 0 0 127 0"/>
<feOffset dy="2"/>
<feColorMatrix type="matrix" values="0 0 0 0 0 0 0 0 0 0 0 0 0 0 0 0 0 0 1 0"/>
<feBlend mode="normal" in2="BackgroundImageFix" result="effect1_dropShadow"/>
<feBlend mode="normal" in="SourceGraphic" in2="effect1_dropShadow" result="shape"/>
</filter>
</defs>
</svg>
