<svg width="11" height="4" viewBox="0 0 11 4" fill="none" xmlns="http://www.w3.org/2000/svg">
<path d="M2.466 1.218C2.682 1.422 2.79 1.668 2.79 1.956C2.79 2.232 2.688 2.472 2.484 2.676C2.28 2.88 2.034 2.982 1.746 2.982C1.458 2.982 1.212 2.88 1.008 2.676C0.816 2.472 0.72 2.232 0.72 1.956C0.72 1.668 0.816 1.422 1.008 1.218C1.212 1.014 1.458 0.912 1.746 0.912C2.034 0.912 2.274 1.014 2.466 1.218ZM5.98163 1.218C6.19763 1.422 6.30563 1.668 6.30563 1.956C6.30563 2.232 6.20363 2.472 5.99963 2.676C5.79563 2.88 5.54963 2.982 5.26163 2.982C4.97363 2.982 4.72763 2.88 4.52363 2.676C4.33163 2.472 4.23563 2.232 4.23563 1.956C4.23563 1.668 4.33163 1.422 4.52363 1.218C4.72763 1.014 4.97363 0.912 5.26163 0.912C5.54963 0.912 5.78963 1.014 5.98163 1.218ZM9.49725 1.218C9.71325 1.422 9.82125 1.668 9.82125 1.956C9.82125 2.232 9.71925 2.472 9.51525 2.676C9.31125 2.88 9.06525 2.982 8.77725 2.982C8.48925 2.982 8.24325 2.88 8.03925 2.676C7.84725 2.472 7.75125 2.232 7.75125 1.956C7.75125 1.668 7.84725 1.422 8.03925 1.218C8.24325 1.014 8.48925 0.912 8.77725 0.912C9.06525 0.912 9.30525 1.014 9.49725 1.218Z" fill="#A49982"/>
<path d="M2.466 1.218L2.1019 1.56068L2.11199 1.5714L2.12269 1.58151L2.466 1.218ZM2.484 2.676L2.83755 3.02955H2.83755L2.484 2.676ZM1.008 2.676L0.6439 3.01868L0.649091 3.0242L0.654447 3.02955L1.008 2.676ZM1.008 1.218L0.654447 0.864447L0.649091 0.869802L0.6439 0.875318L1.008 1.218ZM2.12269 1.58151C2.24225 1.69442 2.29 1.8104 2.29 1.956H3.29C3.29 1.5256 3.12175 1.14958 2.80931 0.854493L2.12269 1.58151ZM2.29 1.956C2.29 2.09285 2.24541 2.20748 2.13045 2.32245L2.83755 3.02955C3.13059 2.73652 3.29 2.37115 3.29 1.956H2.29ZM2.13045 2.32245C2.02003 2.43286 1.90113 2.482 1.746 2.482V3.482C2.16687 3.482 2.53997 3.32714 2.83755 3.02955L2.13045 2.32245ZM1.746 2.482C1.59087 2.482 1.47197 2.43286 1.36155 2.32245L0.654447 3.02955C0.952032 3.32714 1.32513 3.482 1.746 3.482V2.482ZM1.3721 2.33332C1.26594 2.22052 1.22 2.10252 1.22 1.956H0.22C0.22 2.36148 0.366064 2.72348 0.6439 3.01868L1.3721 2.33332ZM1.22 1.956C1.22 1.79141 1.27007 1.66909 1.3721 1.56068L0.6439 0.875318C0.36193 1.17491 0.22 1.54459 0.22 1.956H1.22ZM1.36155 1.57155C1.47197 1.46114 1.59087 1.412 1.746 1.412V0.412C1.32513 0.412 0.952032 0.566861 0.654447 0.864447L1.36155 1.57155ZM1.746 1.412C1.9005 1.412 2.00734 1.46021 2.1019 1.56068L2.8301 0.875318C2.54066 0.567786 2.1675 0.412 1.746 0.412V1.412ZM5.98163 1.218L5.61753 1.56068L5.62761 1.5714L5.63831 1.58151L5.98163 1.218ZM5.99963 2.676L6.35318 3.02955L5.99963 2.676ZM4.52362 2.676L4.15952 3.01868L4.16472 3.0242L4.17007 3.02955L4.52362 2.676ZM4.52362 1.218L4.17007 0.864447L4.16472 0.869802L4.15952 0.875318L4.52362 1.218ZM5.63831 1.58151C5.75787 1.69442 5.80562 1.8104 5.80562 1.956H6.80562C6.80562 1.5256 6.63738 1.14958 6.32494 0.854493L5.63831 1.58151ZM5.80562 1.956C5.80562 2.09285 5.76103 2.20748 5.64607 2.32245L6.35318 3.02955C6.64622 2.73652 6.80562 2.37115 6.80562 1.956H5.80562ZM5.64607 2.32245C5.53566 2.43286 5.41676 2.482 5.26163 2.482V3.482C5.68249 3.482 6.05559 3.32714 6.35318 3.02955L5.64607 2.32245ZM5.26163 2.482C5.10649 2.482 4.98759 2.43286 4.87718 2.32245L4.17007 3.02955C4.46766 3.32714 4.84076 3.482 5.26163 3.482V2.482ZM4.88772 2.33332C4.78156 2.22052 4.73563 2.10252 4.73563 1.956H3.73563C3.73563 2.36148 3.88169 2.72348 4.15952 3.01868L4.88772 2.33332ZM4.73563 1.956C4.73563 1.79141 4.7857 1.66909 4.88772 1.56068L4.15952 0.875318C3.87755 1.17491 3.73563 1.54459 3.73563 1.956H4.73563ZM4.87718 1.57155C4.98759 1.46114 5.10649 1.412 5.26163 1.412V0.412C4.84076 0.412 4.46766 0.566861 4.17007 0.864447L4.87718 1.57155ZM5.26163 1.412C5.41613 1.412 5.52297 1.46021 5.61753 1.56068L6.34573 0.875318C6.05628 0.567786 5.68312 0.412 5.26163 0.412V1.412ZM9.49725 1.218L9.13315 1.56068L9.14324 1.5714L9.15394 1.58151L9.49725 1.218ZM9.51525 2.676L9.8688 3.02955L9.51525 2.676ZM8.03925 2.676L7.67515 3.01868L7.68034 3.0242L7.6857 3.02955L8.03925 2.676ZM8.03925 1.218L7.6857 0.864447L7.68034 0.869802L7.67515 0.875318L8.03925 1.218ZM9.15394 1.58151C9.2735 1.69442 9.32125 1.8104 9.32125 1.956H10.3212C10.3212 1.5256 10.153 1.14958 9.84056 0.854493L9.15394 1.58151ZM9.32125 1.956C9.32125 2.09285 9.27666 2.20748 9.1617 2.32245L9.8688 3.02955C10.1618 2.73652 10.3212 2.37115 10.3212 1.956H9.32125ZM9.1617 2.32245C9.05128 2.43286 8.93238 2.482 8.77725 2.482V3.482C9.19812 3.482 9.57122 3.32714 9.8688 3.02955L9.1617 2.32245ZM8.77725 2.482C8.62212 2.482 8.50322 2.43286 8.3928 2.32245L7.6857 3.02955C7.98328 3.32714 8.35638 3.482 8.77725 3.482V2.482ZM8.40335 2.33332C8.29719 2.22052 8.25125 2.10252 8.25125 1.956H7.25125C7.25125 2.36148 7.39731 2.72348 7.67515 3.01868L8.40335 2.33332ZM8.25125 1.956C8.25125 1.79141 8.30132 1.66909 8.40335 1.56068L7.67515 0.875318C7.39318 1.17491 7.25125 1.54459 7.25125 1.956H8.25125ZM8.3928 1.57155C8.50322 1.46114 8.62212 1.412 8.77725 1.412V0.412C8.35638 0.412 7.98328 0.566861 7.6857 0.864447L8.3928 1.57155ZM8.77725 1.412C8.93176 1.412 9.03859 1.46021 9.13315 1.56068L9.86135 0.875318C9.57191 0.567786 9.19875 0.412 8.77725 0.412V1.412Z" fill="black"/>
</svg>
